<?xml version="1.0" encoding="utf-8"?>
<!-- Generator: Adobe Illustrator 24.0.1, SVG Export Plug-In . SVG Version: 6.00 Build 0)  -->
<svg version="1.1" id="Camada_1" xmlns="http://www.w3.org/2000/svg" xmlns:xlink="http://www.w3.org/1999/xlink" x="0px" y="0px"
	 viewBox="0 0 66 57" style="enable-background:new 0 0 66 57;" xml:space="preserve">
<style type="text/css">
	.st0{fill:url(#SVGID_1_);}
	.st1{fill:url(#SVGID_2_);}
</style>
<linearGradient id="SVGID_1_" gradientUnits="userSpaceOnUse" x1="19.6969" y1="34.1402" x2="46.3369" y2="34.1402">
	<stop  offset="0" style="stop-color:#FFFFFF"/>
	<stop  offset="1" style="stop-color:#FFFFFF;stop-opacity:0"/>
</linearGradient>
<path class="st0" d="M24.6,42.7c-1.6-3.3-3.1-6.4-4.6-9.5c-0.5-0.9-0.4-1.7,0.1-2.6c3.3-5.7,6.5-11.4,9.8-17c0.3-0.5,1-0.8,1.6-1.2
	c0.2,0.6,0.7,1.1,0.7,1.7c0.1,5,0.1,9.9,0,14.9c0,0.7-0.4,1.4-0.8,2c-0.9,1.1-0.9,2.4,0,3.3c0.9,0.9,2.4,0.9,3.3,0
	c0.9-0.9,0.8-2.2,0-3.3c-0.4-0.6-0.8-1.3-0.8-2c-0.1-5-0.1-9.9,0-14.9c0-0.6,0.5-1.2,0.7-1.7c0.5,0.4,1.3,0.7,1.6,1.2
	c3.3,5.7,6.6,11.4,9.9,17.2c0.5,0.8,0.5,1.5,0.1,2.3c-1.6,3.1-3.1,6.3-4.7,9.5c0.4,0.1,0.6,0.1,0.9,0.1c1.9,0.2,3.3,1.4,3.5,3.1
	c0.4,2.5-0.3,4.4-2.1,5.1c-0.9,0.4-1.2,0.8-1.2,1.8c0.1,2.9,0,2.9-3,2.9c-4.7,0-9.4,0-14.1,0c-2,0-2.1-0.1-2.1-2
	c0-1.3,0-2.3-1.5-2.9c-1.6-0.7-2.2-3-1.6-5.2c0.4-1.6,1.7-2.6,3.5-2.8C24,42.8,24.2,42.8,24.6,42.7z M30.2,18
	c-0.1,0-0.2-0.1-0.3-0.1c-2.6,4.5-5.2,9.1-7.8,13.6c-0.2,0.3-0.1,0.9,0.1,1.3c1.4,3,2.9,6.1,4.4,9c0.2,0.4,0.9,0.9,1.4,0.9
	c3.4,0.1,6.7,0,10.1,0.1c0.8,0,1.2-0.3,1.5-1c1.4-2.9,2.9-5.8,4.2-8.8c0.2-0.5,0.2-1.4-0.1-2c-2.3-4.1-4.7-8.2-7-12.3
	c-0.2-0.3-0.4-0.6-0.8-1.2c0,4,0,7.7,0,11.3c0,0.4,0.3,0.8,0.6,1.1c1.4,2,1.2,4.4-0.5,5.9c-1.6,1.5-4.2,1.5-5.8,0
	c-1.7-1.6-1.9-4-0.5-5.9c0.3-0.4,0.6-0.8,0.6-1.2C30.2,25.2,30.2,21.6,30.2,18z M33,44.9c-2.9,0-5.7,0-8.6,0c-1.7,0-2.2,0.6-2.2,2.3
	c0,1.7,0.6,2.3,2.2,2.3c5.7,0,11.4,0,17.2,0c1.7,0,2.2-0.6,2.2-2.3c0-1.7-0.5-2.3-2.2-2.3C38.7,44.8,35.9,44.9,33,44.9z M25.5,51.6
	c0,0.7,0,1.3,0,2c5,0,10,0,15,0c0-0.7,0-1.3,0-2C35.5,51.6,30.6,51.6,25.5,51.6z"/>
<linearGradient id="SVGID_2_" gradientUnits="userSpaceOnUse" x1="51.7872" y1="-4.2552" x2="14.3125" y2="38.7029">
	<stop  offset="0" style="stop-color:#BC3C90"/>
	<stop  offset="2.230000e-02" style="stop-color:#BC3C90;stop-opacity:0.96"/>
	<stop  offset="2.230000e-02" style="stop-color:#BC3C90;stop-opacity:0.9581"/>
	<stop  offset="1" style="stop-color:#BC3C90;stop-opacity:0"/>
</linearGradient>
<path class="st1" d="M36.7,6c-0.3,2.4-0.3,2.4-2.8,2.4c-0.7,0-1.4,0-2,0c-2.3,0-2.3,0-2.5-2.3C20.8,5.5,10.1,14.4,10.3,25
	c2,0.4,2.1,0.4,2,2.6c-0.1,4.7,0.7,4.1-4.1,4.1c-2.5,0-2.5,0-2.5-2.5c0-0.8,0-1.6,0-2.3c0-1.1,0.2-1.8,1.5-1.8
	c0.3,0,0.8-0.8,0.9-1.3c0.5-4.7,2.2-8.9,5.4-12.3c2-2.1,4.4-3.9,6.6-5.8c-2.2,0-4.6,0-7.1,0c-0.3,0-0.5,0.5-0.8,0.8
	c-1,1.5-2.5,2.1-4,1.6C6.8,7.8,5.7,6.4,5.7,4.8c0-1.6,1.1-3,2.5-3.4c1.6-0.5,3.1,0.1,4.2,1.6c0.2,0.3,0.7,0.7,1.1,0.7
	c5.2,0,10.5,0,15.8,0c0.1-0.4,0.2-0.7,0.1-1c-0.1-1.1,0.4-1.5,1.5-1.5c1.1,0,2.1,0,3.2,0c2.3,0,2.3,0,2.5,2.4c0.4,0,0.9,0.1,1.4,0.1
	c4.7,0,9.3,0,14,0c0.8,0,1.3-0.1,1.8-0.9c0.8-1.4,2.5-2,4.1-1.5c1.4,0.4,2.5,1.9,2.4,3.4c0,1.6-1,2.9-2.5,3.4
	c-1.5,0.5-3.1,0-3.9-1.4c-0.5-0.8-1-1-1.9-1c-2.1,0.1-4.2,0-6.4,0.2c3.5,2,6.5,4.6,8.8,8c2.2,3.4,3.4,7.2,3.7,11.2
	c2.3,0.4,2.3,0.4,2.3,2.6c0,1,0,1.9,0,2.9c0,0.8-0.4,1.2-1.3,1.2c-1.4,0-2.7,0-4.1,0c-0.8,0-1.2-0.4-1.2-1.3c0-1,0-1.9,0-2.9
	c0-2.2,0-2.2,2-2.5C57.1,16.6,46.6,5.9,36.7,6z M34.5,3.4c-1,0-1.9,0-2.8,0c0,1,0,2,0,2.8c1,0,1.9,0,2.8,0
	C34.5,5.2,34.5,4.4,34.5,3.4z M9.6,3.1c-0.2,0-0.4,0-0.7,0C8.6,3.6,7.8,4.2,7.9,4.8C8,5.3,8.7,6.1,9.2,6.2c0.9,0.2,1.6-0.5,1.5-1.5
	C10.7,4.2,10,3.6,9.6,3.1z M58.4,5.2c0-0.2,0-0.4,0-0.7c-0.5-0.4-1.1-1.2-1.6-1.1c-0.6,0-1.4,0.7-1.5,1.3c-0.2,0.9,0.5,1.7,1.4,1.6
	C57.3,6.2,57.8,5.6,58.4,5.2z M10.2,27.4c-0.8,0-1.6,0-2.3,0c0,0.8,0,1.5,0,2.3c0.8,0,1.5,0,2.3,0C10.2,28.9,10.2,28.2,10.2,27.4z
	 M55.8,27.3c0,0.9,0,1.6,0,2.3c0.8,0,1.6,0,2.3,0c0-0.8,0-1.5,0-2.3C57.3,27.3,56.6,27.3,55.8,27.3z"/>
</svg>
