<?xml version="1.0" encoding="utf-8"?>
<!-- Generator: Adobe Illustrator 24.0.1, SVG Export Plug-In . SVG Version: 6.00 Build 0)  -->
<svg version="1.1" id="Camada_1" xmlns="http://www.w3.org/2000/svg" xmlns:xlink="http://www.w3.org/1999/xlink" x="0px" y="0px"
	 viewBox="0 0 66 57" style="enable-background:new 0 0 66 57;" xml:space="preserve">
<style type="text/css">
	.st0{fill:url(#SVGID_1_);}
	.st1{fill:url(#SVGID_2_);stroke:url(#SVGID_3_);}
	.st2{fill:url(#SVGID_4_);stroke:url(#SVGID_5_);}
	.st3{fill:url(#SVGID_6_);stroke:url(#SVGID_7_);}
	.st4{fill:url(#SVGID_8_);stroke:url(#SVGID_9_);}
</style>
<linearGradient id="SVGID_1_" gradientUnits="userSpaceOnUse" x1="18.6332" y1="28.5308" x2="49.6084" y2="28.5308">
	<stop  offset="0" style="stop-color:#FFFFFF"/>
	<stop  offset="1" style="stop-color:#FFFFFF;stop-opacity:0"/>
</linearGradient>
<path class="st0" d="M49.6,28.6c0,7.4,0,14.8,0,22.3c0,3.3-1.8,5.1-5.1,5.1c-7,0-14,0-21,0c-3.1,0-5-1.9-5-5c0-15,0-29.9,0-44.9
	c0-3,1.9-4.9,4.9-4.9c7.1,0,14.1,0,21.2,0c3,0,4.9,1.9,4.9,4.9C49.6,13.6,49.6,21.1,49.6,28.6z M48.4,9.6c-9.6,0-19,0-28.4,0
	c0,12.2,0,24.4,0,36.5c9.5,0,19,0,28.4,0C48.4,33.9,48.4,21.8,48.4,9.6z M19.8,47.4c0,1.5-0.1,3,0,4.4c0.1,1.7,1.5,3,3.2,3
	c7.4,0,14.8,0,22.2,0c1.5,0,2.9-1,3.1-2.5c0.2-1.6,0-3.2,0-4.8C38.8,47.4,29.4,47.4,19.8,47.4z M19.8,8.2c9.6,0,19.1,0,28.6,0
	c0-0.9,0-1.7,0-2.6c-0.1-1.9-1.4-3.3-3.3-3.3c-7.3,0-14.7,0-22,0c-1.8,0-3.2,1.4-3.3,3.3C19.8,6.5,19.8,7.3,19.8,8.2z"/>
<linearGradient id="SVGID_2_" gradientUnits="userSpaceOnUse" x1="27.5021" y1="24.942" x2="41.1588" y2="24.942">
	<stop  offset="0" style="stop-color:#BC3C90"/>
	<stop  offset="2.230000e-02" style="stop-color:#BC3C90;stop-opacity:0.96"/>
	<stop  offset="2.230000e-02" style="stop-color:#BC3C90;stop-opacity:0.9581"/>
	<stop  offset="1" style="stop-color:#BC3C90;stop-opacity:0"/>
</linearGradient>
<linearGradient id="SVGID_3_" gradientUnits="userSpaceOnUse" x1="27.0021" y1="25.0872" x2="41.7054" y2="25.0872">
	<stop  offset="0" style="stop-color:#BC3C90"/>
	<stop  offset="2.230000e-02" style="stop-color:#BC3C90;stop-opacity:0.96"/>
	<stop  offset="2.230000e-02" style="stop-color:#BC3C90;stop-opacity:0.9581"/>
	<stop  offset="1" style="stop-color:#BC3C90;stop-opacity:0"/>
</linearGradient>
<path class="st1" d="M27.8,32c-0.2-0.5-0.4-0.9-0.3-1.1c0.1-0.3,0.4-0.5,0.6-0.7c3.9-3.9,7.8-7.8,11.7-11.7c0.1-0.1,0.3-0.3,0.4-0.4
	c0.3-0.1,0.6-0.1,0.9-0.2c0,0.3,0,0.6-0.1,0.9c0,0.2-0.3,0.3-0.4,0.4c-3.9,3.9-7.8,7.8-11.8,11.8C28.6,31.3,28.3,31.5,27.8,32z"/>
<linearGradient id="SVGID_4_" gradientUnits="userSpaceOnUse" x1="26.8658" y1="32.5411" x2="36.5452" y2="32.5411">
	<stop  offset="0" style="stop-color:#BC3C90"/>
	<stop  offset="2.230000e-02" style="stop-color:#BC3C90;stop-opacity:0.96"/>
	<stop  offset="2.230000e-02" style="stop-color:#BC3C90;stop-opacity:0.9581"/>
	<stop  offset="1" style="stop-color:#BC3C90;stop-opacity:0"/>
</linearGradient>
<linearGradient id="SVGID_5_" gradientUnits="userSpaceOnUse" x1="26.1256" y1="32.633" x2="37.1948" y2="32.633">
	<stop  offset="0" style="stop-color:#BC3C90"/>
	<stop  offset="2.230000e-02" style="stop-color:#BC3C90;stop-opacity:0.96"/>
	<stop  offset="2.230000e-02" style="stop-color:#BC3C90;stop-opacity:0.9581"/>
	<stop  offset="1" style="stop-color:#BC3C90;stop-opacity:0"/>
</linearGradient>
<path class="st2" d="M36.5,28.3c-0.2,0.3-0.4,0.6-0.6,0.8c-2.6,2.6-5.2,5.3-7.9,7.9c-0.3,0.2-0.8,0.2-1.2,0.3
	c0.1-0.4,0.1-0.8,0.4-1.1c2.6-2.7,5.2-5.3,7.9-7.9c0.2-0.2,0.7-0.3,1-0.4C36.2,27.8,36.4,28.1,36.5,28.3z"/>
<linearGradient id="SVGID_6_" gradientUnits="userSpaceOnUse" x1="31.9481" y1="50.9526" x2="36.2916" y2="50.9526">
	<stop  offset="0" style="stop-color:#BC3C90"/>
	<stop  offset="2.230000e-02" style="stop-color:#BC3C90;stop-opacity:0.96"/>
	<stop  offset="2.230000e-02" style="stop-color:#BC3C90;stop-opacity:0.9581"/>
	<stop  offset="1" style="stop-color:#BC3C90;stop-opacity:0"/>
</linearGradient>
<linearGradient id="SVGID_7_" gradientUnits="userSpaceOnUse" x1="31.4481" y1="50.9526" x2="36.7916" y2="50.9526">
	<stop  offset="0" style="stop-color:#BC3C90"/>
	<stop  offset="2.230000e-02" style="stop-color:#BC3C90;stop-opacity:0.96"/>
	<stop  offset="2.230000e-02" style="stop-color:#BC3C90;stop-opacity:0.9581"/>
	<stop  offset="1" style="stop-color:#BC3C90;stop-opacity:0"/>
</linearGradient>
<path class="st3" d="M34.1,48.8c1.2,0,2.2,1,2.2,2.2c0,1.2-0.9,2.2-2.1,2.2c-1.2,0-2.2-0.9-2.2-2.1C31.9,49.8,32.9,48.8,34.1,48.8z
	 M35.5,50.9c-0.7-0.4-1.1-0.9-1.5-0.8c-0.4,0.1-0.9,0.6-0.9,1c0,0.3,0.6,0.8,1,0.8C34.5,51.9,34.9,51.4,35.5,50.9z"/>
<linearGradient id="SVGID_8_" gradientUnits="userSpaceOnUse" x1="31.0052" y1="5.4797" x2="37.2391" y2="5.4797">
	<stop  offset="0" style="stop-color:#BC3C90"/>
	<stop  offset="2.230000e-02" style="stop-color:#BC3C90;stop-opacity:0.96"/>
	<stop  offset="2.230000e-02" style="stop-color:#BC3C90;stop-opacity:0.9581"/>
	<stop  offset="1" style="stop-color:#BC3C90;stop-opacity:0"/>
</linearGradient>
<linearGradient id="SVGID_9_" gradientUnits="userSpaceOnUse" x1="30.1684" y1="5.4797" x2="38.0778" y2="5.4797">
	<stop  offset="0" style="stop-color:#BC3C90"/>
	<stop  offset="2.230000e-02" style="stop-color:#BC3C90;stop-opacity:0.96"/>
	<stop  offset="2.230000e-02" style="stop-color:#BC3C90;stop-opacity:0.9581"/>
	<stop  offset="1" style="stop-color:#BC3C90;stop-opacity:0"/>
</linearGradient>
<path class="st4" d="M34.1,6.1c-0.8,0-1.5,0.1-2.3,0c-0.3,0-0.5-0.4-0.8-0.6c0.3-0.2,0.5-0.5,0.8-0.5c1.5,0,3.1-0.1,4.6,0
	c0.3,0,0.5,0.4,0.8,0.6C37,5.7,36.7,6,36.5,6C35.7,6.1,34.9,6.1,34.1,6.1z"/>
</svg>
