<?xml version="1.0" encoding="utf-8"?>
<!-- Generator: Adobe Illustrator 24.0.1, SVG Export Plug-In . SVG Version: 6.00 Build 0)  -->
<svg version="1.1" id="Camada_1" xmlns="http://www.w3.org/2000/svg" xmlns:xlink="http://www.w3.org/1999/xlink" x="0px" y="0px"
	 viewBox="0 0 66 57" style="enable-background:new 0 0 66 57;" xml:space="preserve">
<style type="text/css">
	.st0{fill:url(#SVGID_1_);}
	.st1{fill:none;stroke:url(#SVGID_2_);}
	.st2{fill:url(#SVGID_3_);}
	.st3{fill:url(#SVGID_4_);stroke:url(#SVGID_5_);}
</style>
<linearGradient id="SVGID_1_" gradientUnits="userSpaceOnUse" x1="2.4662" y1="28.5" x2="63.5338" y2="28.5">
	<stop  offset="0" style="stop-color:#FFFFFF"/>
	<stop  offset="1" style="stop-color:#FFFFFF;stop-opacity:0"/>
</linearGradient>
<path class="st0" d="M32.9,56.5c-7.6,0-15.2,0-22.8,0c-4.9,0-7.7-2.8-7.7-7.7c0-13.6,0-27.1,0-40.7c0-4.7,2.9-7.6,7.5-7.6
	c15.3,0,30.7,0,46,0c4.6,0,7.5,2.9,7.5,7.5c0,13.6,0,27.3,0,40.9c0,4.6-2.9,7.5-7.5,7.5C48.3,56.5,40.6,56.5,32.9,56.5z M59.7,13.3
	c-17.8,0-35.6,0-53.3,0c0,0.2-0.1,0.2-0.1,0.3c0,12,0,23.9,0,35.9c0,1.9,1.4,3.1,3.3,3.1c15.6,0,31.2,0,46.7,0
	c2.1,0,3.3-1.3,3.3-3.4c0-11.8,0-23.6,0-35.4C59.7,13.7,59.7,13.6,59.7,13.3z M6.3,9.3c17.9,0,35.6,0,53.3,0c0.4-3.2-0.6-5.1-4.5-5
	c-14.9,0.1-29.7,0-44.6,0c-0.4,0-0.9,0-1.3,0c-1.6,0.1-2.8,1.3-3,2.9C6.3,7.9,6.3,8.6,6.3,9.3z"/>
<linearGradient id="SVGID_2_" gradientUnits="userSpaceOnUse" x1="28.7403" y1="33.6081" x2="37.307" y2="33.6081">
	<stop  offset="0" style="stop-color:#BC3C90"/>
	<stop  offset="2.230000e-02" style="stop-color:#BC3C90;stop-opacity:0.96"/>
	<stop  offset="2.230000e-02" style="stop-color:#BC3C90;stop-opacity:0.9581"/>
	<stop  offset="1" style="stop-color:#BC3C90;stop-opacity:0"/>
</linearGradient>
<path class="st1" d="M36.8,25.6c-0.4,2-0.9,4.1-1.4,6.2c-0.8,3.4-1.6,6.7-2.3,10.1c-0.3,1.5-1.3,2.2-2.4,1.9
	c-1.1-0.3-1.7-1.3-1.3-2.7c1.2-5.3,2.4-10.6,3.7-15.9c0.3-1.2,1.1-1.8,2.2-1.7C36.1,23.6,36.8,24.4,36.8,25.6z"/>
<linearGradient id="SVGID_3_" gradientUnits="userSpaceOnUse" x1="18.9985" y1="33.5982" x2="26.6201" y2="33.5982">
	<stop  offset="0" style="stop-color:#BC3C90"/>
	<stop  offset="2.230000e-02" style="stop-color:#BC3C90;stop-opacity:0.96"/>
	<stop  offset="2.230000e-02" style="stop-color:#BC3C90;stop-opacity:0.9581"/>
	<stop  offset="1" style="stop-color:#BC3C90;stop-opacity:0"/>
</linearGradient>
<path class="st2" d="M23.4,33.6c0.9,1.1,1.8,2.1,2.6,3.1c0.8,0.9,0.7,2.1-0.1,2.8c-0.8,0.8-2,0.7-2.8-0.3c-1.2-1.4-2.4-2.8-3.6-4.2
	c-0.7-0.9-0.7-1.8,0-2.7c1.2-1.4,2.4-2.8,3.6-4.2c0.8-0.9,1.9-1,2.7-0.3c0.8,0.7,0.9,1.8,0.2,2.8C25.3,31.5,24.4,32.5,23.4,33.6z"/>
<linearGradient id="SVGID_4_" gradientUnits="userSpaceOnUse" x1="39.3852" y1="33.6002" x2="47.0028" y2="33.6002">
	<stop  offset="0" style="stop-color:#BC3C90"/>
	<stop  offset="2.230000e-02" style="stop-color:#BC3C90;stop-opacity:0.96"/>
	<stop  offset="2.230000e-02" style="stop-color:#BC3C90;stop-opacity:0.9581"/>
	<stop  offset="1" style="stop-color:#BC3C90;stop-opacity:0"/>
</linearGradient>
<linearGradient id="SVGID_5_" gradientUnits="userSpaceOnUse" x1="38.8852" y1="33.6002" x2="47.5028" y2="33.6002">
	<stop  offset="0" style="stop-color:#BC3C90"/>
	<stop  offset="2.230000e-02" style="stop-color:#BC3C90;stop-opacity:0.96"/>
	<stop  offset="2.230000e-02" style="stop-color:#BC3C90;stop-opacity:0.9581"/>
	<stop  offset="1" style="stop-color:#BC3C90;stop-opacity:0"/>
</linearGradient>
<path class="st3" d="M42.6,33.6c-0.8-1-1.7-1.9-2.5-2.9c-0.9-1.1-0.9-2.2-0.1-3c0.8-0.8,2-0.6,2.9,0.4c1.1,1.3,2.3,2.6,3.4,4
	c0.9,1,0.9,1.9,0,2.9c-1.1,1.4-2.3,2.7-3.5,4.1c-0.9,1-1.9,1.1-2.8,0.4c-0.9-0.7-0.9-1.9,0-2.9c0.4-0.5,0.8-1,1.2-1.5
	C41.7,34.6,42.1,34.1,42.6,33.6z"/>
</svg>
