<?xml version="1.0" encoding="utf-8"?>
<!-- Generator: Adobe Illustrator 24.0.1, SVG Export Plug-In . SVG Version: 6.00 Build 0)  -->
<svg version="1.1" id="Camada_1" xmlns="http://www.w3.org/2000/svg" xmlns:xlink="http://www.w3.org/1999/xlink" x="0px" y="0px"
	 viewBox="0 0 34 36" style="enable-background:new 0 0 34 36;" xml:space="preserve">
<style type="text/css">
	.st0{fill:#BC3C90;}
</style>
<path class="st0" d="M17,34.2c-3.5,0-7,0-10.5,0c-3.3,0-5.6-2.3-5.6-5.6c0-7,0-14,0-21.1c0-3.3,2.3-5.6,5.6-5.6c7,0,14.1,0,21.1,0
	c3.2,0,5.6,2.3,5.6,5.6c0,7,0,14.1,0,21.1c0,3.3-2.3,5.6-5.6,5.6C24,34.2,20.5,34.2,17,34.2z M21.8,17.5c0.1-0.1,0.3-0.1,0.4-0.2
	c1.7-0.9,2.3-2.4,2.2-4.3c-0.1-1.8-1.1-3.1-2.8-3.7c-0.9-0.3-1.9-0.4-2.9-0.4c-2.8-0.1-5.6,0-8.4,0c-0.2,0-0.4,0-0.6,0
	c0,6.3,0,12.5,0,18.8c3.3,0,6.5,0,9.7,0c0.5,0,1-0.1,1.5-0.2c1.9-0.5,3.5-1.4,4.1-3.4c0.8-2.9-0.4-5.3-3.1-6.4
	C21.8,17.6,21.8,17.6,21.8,17.5z"/>
<path class="st0" d="M13,25c0-2,0-3.9,0-5.8c0.1,0,0.3-0.1,0.4-0.1c1.8,0,3.7,0,5.5,0c2.3,0,3.5,1.6,2.9,3.8c-0.3,1.1-1.1,1.9-2.3,2
	C17.8,25,16,25,14.2,25C13.8,25,13.4,25,13,25z"/>
<path class="st0" d="M13,16.7c0-1.7,0-3.4,0-5.2c0.9,0,1.9,0,2.8,0c1,0,1.9,0,2.9,0c1.6,0,2.3,0.8,2.4,2.2c0.1,1.7-0.7,2.8-2.2,2.9
	C16.9,16.8,15,16.7,13,16.7z"/>
</svg>
