<?xml version="1.0" encoding="utf-8"?>
<!-- Generator: Adobe Illustrator 24.0.1, SVG Export Plug-In . SVG Version: 6.00 Build 0)  -->
<svg version="1.1" id="Camada_1" xmlns="http://www.w3.org/2000/svg" xmlns:xlink="http://www.w3.org/1999/xlink" x="0px" y="0px"
	 viewBox="0 0 34 36" style="enable-background:new 0 0 34 36;" xml:space="preserve">
<style type="text/css">
	.st0{fill:#BC3C90;}
	.st1{fill:none;}
</style>
<path class="st0" d="M32.4,0.8c-0.2,2.8-0.5,5.6-0.7,8.4c-0.4,4.4-0.8,8.8-1.2,13.2c-0.3,3.2-0.6,6.4-0.9,9.6c0,0.2-0.3,0.5-0.5,0.6
	c-3.9,1.1-7.9,2.2-11.8,3.3c-0.2,0.1-0.5,0-0.7,0c-3.9-1.1-7.8-2.2-11.7-3.2c-0.4-0.1-0.6-0.3-0.6-0.8c-0.5-6-1.1-12-1.6-18
	C2.4,9.5,2,5.2,1.6,0.8C11.9,0.8,22.1,0.8,32.4,0.8z M8.5,20.8c0.2,2,0.3,3.9,0.6,5.8c0,0.2,0.3,0.4,0.5,0.5c2.3,0.7,4.7,1.3,7,1.9
	c0.3,0.1,0.6,0.1,0.9,0c2.1-0.6,4.2-1.1,6.3-1.7C25,27,25,27,25.1,25.7c0.3-3.9,0.7-7.9,1.1-11.8c0.2-2.2,0.4-4.4,0.6-6.6
	c-6.5,0-13,0-19.5,0c0.1,1.2,0.2,2.4,0.3,3.6c5,0,10,0,15,0c-0.1,1.3-0.2,2.6-0.3,4c-4.8,0-9.5,0-14.4,0c0.1,1.1,0.3,2,0.3,2.9
	c0,0.8,0.3,0.9,1,0.9c4,0,8,0,11.9,0c0.2,0,0.5,0,0.8,0c-0.2,1.7-0.4,3.4-0.6,5c0,0.1-0.2,0.4-0.3,0.4c-1.3,0.4-2.7,0.7-4,1.1
	c-0.2,0-0.4,0-0.5-0.1c-1.1-0.3-2.2-0.6-3.3-0.9c-0.4-0.1-0.6-0.3-0.6-0.7c0-0.9-0.1-1.7-0.2-2.6C11,20.8,9.8,20.8,8.5,20.8z"/>
<path class="st1" d="M4,145.6c2.9,0,5.6,0,8.5,0c0.2,1.9,0.4,3.8,0.5,5.6c0,1,0.4,1.4,1.3,1.6c2.4,0.6,4.8,1.3,7.2,1.9
	c0.4,0.1,0.8,0.3,1.2,0.2c2.9-0.7,5.9-1.5,8.8-2.4c0.3-0.1,0.6-0.5,0.6-0.9c0.4-3.6,0.8-7.2,1.2-10.9c-0.6,0-1.2,0-1.7,0
	c-8.6,0-17.3,0-25.9,0.1c-1.6,0-2.2-0.3-2.2-2c0-2-0.4-3.9-0.6-6.2c10.5,0,20.7,0,31.1,0c0.2-3.1,0.4-5.8,0.6-8.7
	c-10.9,0-21.7,0-32.6,0c-0.2-2.6-0.4-5.2-0.6-7.9c14.1,0,28.2,0,42.3,0c-0.4,4.8-0.8,9.6-1.2,14.3c-0.8,8.6-1.5,17.1-2.3,25.7
	c-0.2,2.8-0.2,2.8-2.9,3.6c-4.5,1.3-9.1,2.5-13.6,3.7c-0.6,0.2-1.4,0.2-2,0c-5.1-1.4-10.1-2.8-15.2-4.2c-0.4-0.1-1.1-0.7-1.1-1
	C4.7,154.1,4.4,149.9,4,145.6z"/>
</svg>
