<?xml version="1.0" encoding="utf-8"?>
<!-- Generator: Adobe Illustrator 24.0.1, SVG Export Plug-In . SVG Version: 6.00 Build 0)  -->
<svg version="1.1" id="Camada_1" xmlns="http://www.w3.org/2000/svg" xmlns:xlink="http://www.w3.org/1999/xlink" x="0px" y="0px"
	 viewBox="0 0 34 36" style="enable-background:new 0 0 34 36;" xml:space="preserve">
<style type="text/css">
	.st0{fill:#BC3C90;}
	.st1{fill:none;}
</style>
<path class="st0" d="M31.9,1c-0.1,1.6-0.3,3.1-0.4,4.7c-0.2,2.3-0.4,4.7-0.6,7c-0.3,2.8-0.5,5.5-0.8,8.3c-0.2,2.2-0.4,4.4-0.6,6.7
	c-0.1,1.2-0.2,2.4-0.3,3.5c0,0.4-0.2,0.6-0.6,0.7c-3.7,1-7.5,2.1-11.2,3.1c-0.3,0.1-0.7,0.1-1,0c-3.7-1-7.3-2-11-3.1
	c-0.5-0.1-0.7-0.4-0.8-1c-0.2-2.9-0.5-5.8-0.8-8.7c-0.2-2.7-0.5-5.5-0.7-8.2C3,11.2,2.7,8.4,2.5,5.6C2.3,4.1,2.2,2.6,2.1,1
	C12,1,22,1,31.9,1z M21.6,18.7c-0.2,1.6-0.3,3.1-0.5,4.5c0,0.1-0.2,0.3-0.4,0.3c-1.1,0.3-2.2,0.6-3.3,0.9c-0.2,0.1-0.5,0.1-0.7,0
	c-1.1-0.3-2.2-0.6-3.3-0.9c-0.2-0.1-0.4-0.3-0.5-0.5c-0.1-0.7-0.2-1.5-0.2-2.2c0-0.4-0.2-0.6-0.6-0.6c-0.9,0-1.9,0-2.8,0
	c-0.5,0-0.5,0.2-0.5,0.6c0.2,1.7,0.3,3.3,0.4,5c0,0.5,0.2,0.7,0.6,0.8c2.3,0.6,4.5,1.3,6.8,1.9c0.2,0.1,0.5,0.1,0.8,0
	c2.3-0.6,4.7-1.3,7-2c0.2-0.1,0.4-0.3,0.4-0.5c0.3-3.1,0.6-6.1,0.8-9.2c0.1-0.7,0.1-1.4,0.2-2.2c-4.6,0-9.1,0-13.7,0
	c-0.1-1.3-0.2-2.4-0.3-3.7c0.4,0,0.6,0,0.9,0c2.8,0,5.7,0,8.5,0c1.5,0,2.9,0,4.4,0c0.2,0,0.6-0.1,0.6-0.3c0.2-1.2,0.2-2.4,0.4-3.6
	c-6.4,0-12.6,0-19,0c0.1,0.7,0.1,1.4,0.2,2.1c0.3,2.9,0.5,5.9,0.8,8.8c0,0.6,0.3,0.7,0.8,0.7c3.6,0,7.2,0,10.8,0
	C20.5,18.7,21,18.7,21.6,18.7z"/>
<path class="st1" d="M55.7,99.9c-0.3,0-0.6,0-0.9,0c-2.1,0-4.1,0-6.2,0c-0.3,0-0.4,0-0.5-0.4c-0.1-1.7-0.3-3.3-0.4-5
	c0-0.4-0.1-0.8-0.1-1.2c3.6,0,7.2,0,10.8,0c-0.1,0.7-0.1,1.4-0.2,2.1c0,0.1-0.2,0.1-0.3,0.1c-0.8,0-1.7,0-2.5,0c-1.6,0-3.2,0-4.9,0
	c-0.1,0-0.3,0-0.5,0c0.1,0.7,0.1,1.4,0.2,2.1c2.6,0,5.2,0,7.8,0c0,0.5-0.1,0.9-0.1,1.3c-0.2,1.7-0.3,3.5-0.5,5.2
	c0,0.1-0.1,0.2-0.3,0.3c-1.3,0.4-2.7,0.8-4,1.1c-0.1,0-0.3,0-0.4,0c-1.3-0.4-2.6-0.7-3.9-1.1c-0.3-0.1-0.3-0.2-0.4-0.4
	c-0.1-1-0.2-1.9-0.3-2.9c0-0.3,0-0.4,0.3-0.4c0.5,0,1.1,0,1.6,0c0.2,0,0.3,0.1,0.3,0.3c0,0.4,0.1,0.8,0.1,1.3c0,0.1,0.2,0.3,0.3,0.3
	c0.6,0.2,1.2,0.4,1.9,0.5c0.1,0,0.3,0,0.4,0c0.6-0.2,1.3-0.3,1.9-0.5c0.1,0,0.2-0.1,0.2-0.2C55.5,101.6,55.6,100.8,55.7,99.9z"/>
</svg>
