<?xml version="1.0" encoding="utf-8"?>
<!-- Generator: Adobe Illustrator 24.0.1, SVG Export Plug-In . SVG Version: 6.00 Build 0)  -->
<svg version="1.1" id="Camada_1" xmlns="http://www.w3.org/2000/svg" xmlns:xlink="http://www.w3.org/1999/xlink" x="0px" y="0px"
	 viewBox="0 0 34 36" style="enable-background:new 0 0 34 36;" xml:space="preserve">
<style type="text/css">
	.st0{fill-rule:evenodd;clip-rule:evenodd;fill:#BC3C90;}
</style>
<path class="st0" d="M1.4,2.4h31.1v31.1H1.4V2.4z M25.2,28.5c-1.4,0-2.3-0.8-2.9-1.8L20,28.1c0.9,1.7,2.6,3,5.3,3
	c2.8,0,4.8-1.4,4.8-4.1c0-2.4-1.4-3.5-3.9-4.6l-0.7-0.3c-1.3-0.5-1.8-0.9-1.8-1.8c0-0.7,0.5-1.3,1.4-1.3c0.8,0,1.4,0.4,1.9,1.3
	l2.3-1.5c-1-1.7-2.3-2.3-4.2-2.3c-2.6,0-4.3,1.7-4.3,3.9c0,2.4,1.4,3.5,3.5,4.4l0.7,0.3c1.3,0.6,2.1,0.9,2.1,1.9
	C27.2,27.9,26.4,28.5,25.2,28.5z M13.9,28.5c-1,0-1.4-0.7-1.9-1.5l-2.4,1.4c0.7,1.5,2,2.7,4.4,2.7c2.6,0,4.4-1.4,4.4-4.4v-10h-2.9
	v9.9C15.5,28.1,14.9,28.5,13.9,28.5L13.9,28.5z"/>
</svg>
