<?xml version="1.0" encoding="utf-8"?>
<!-- Generator: Adobe Illustrator 24.0.1, SVG Export Plug-In . SVG Version: 6.00 Build 0)  -->
<svg version="1.1" id="Camada_1" xmlns="http://www.w3.org/2000/svg" xmlns:xlink="http://www.w3.org/1999/xlink" x="0px" y="0px"
	 viewBox="0 0 34 36" style="enable-background:new 0 0 34 36;" xml:space="preserve">
<style type="text/css">
	.st0{fill:#BC3C90;}
</style>
<g>
	<path class="st0" d="M7,13.5c-0.4-1.3-0.8-2.6-1-3.9C5.8,8.9,5.8,8,5.9,7.3c0.2-2,1.7-3,3.7-2.5c1.9,0.5,3.5,1.6,4.9,2.8
		c0.6,0.5,1.2,1.1,1.8,1.6c1-0.8,2-1.6,3-2.3C20.6,6,21.9,5.3,23.4,5c1.9-0.3,3.3,0.8,3.6,2.7c0.2,1.6-0.2,3.1-0.7,4.7
		c-0.1,0.3-0.2,0.6-0.3,0.9c0.8,0.2,1.6,0.4,2.3,0.7c1.1,0.5,2.2,1,3.1,1.7c1.9,1.4,1.9,3.4,0.1,5c-1.3,1.2-3,1.7-4.6,2.2
		c-0.4,0.1-0.8,0.2-1.2,0.3c0.3,1.1,0.6,2,0.8,3.1c0.1,0.8,0.2,1.7,0.1,2.6c-0.3,1.9-1.7,2.8-3.6,2.4c-1.7-0.4-3.2-1.4-4.6-2.5
		c-0.6-0.5-1.2-1-1.9-1.6c-0.6,0.5-1.2,1-1.8,1.5c-1.4,1.1-2.8,2-4.5,2.5c-2.6,0.8-4.5-0.5-4.4-3.2c0-1.4,0.5-2.7,0.8-4
		c0.1-0.4,0.2-0.7,0.3-1c-1-0.4-2.1-0.8-3-1.3c-0.7-0.3-1.3-0.8-1.8-1.3c-1.2-1.2-1.2-2.8,0-4.1c1.1-1.2,2.6-1.8,4-2.3
		C6.4,13.7,6.7,13.6,7,13.5z M16.3,22.7c0.8,0,1.5,0,2.1,0c0.2,0,0.5-0.1,0.7-0.3c0.9-1.2,1.8-2.4,2.6-3.6c0.1-0.2,0.1-0.5,0-0.7
		c-1-1.4-1.9-2.8-2.9-4.2c-0.1-0.2-0.4-0.3-0.5-0.3c-1.2,0-2.4,0-3.6,0.1c-0.2,0-0.6,0.2-0.7,0.4c-0.9,1.2-1.8,2.4-2.6,3.6
		c-0.1,0.2-0.1,0.5,0,0.7c0.5,0.9,1.2,1.6,1.7,2.5C13.7,22.3,14.7,23.2,16.3,22.7z M8.4,13.1c1.7-0.2,3.3-0.4,4.9-0.7
		c0.1,0,0.2-0.1,0.3-0.2c0.6-0.7,1.2-1.4,1.9-2.1c-0.3-0.3-0.6-0.6-0.9-0.8C13,8,11.5,6.7,9.5,6.1C8,5.6,7.2,6.2,7.1,7.8
		C7.1,9.7,7.7,11.4,8.4,13.1z M15.5,26.1c-0.6-0.7-1.2-1.4-1.8-2.1c-0.1-0.1-0.3-0.2-0.4-0.2c-1.5-0.2-3.1-0.5-4.6-0.7
		c-0.3-0.1-0.5,0-0.6,0.3c-0.2,0.7-0.6,1.4-0.7,2.2c-0.2,1-0.2,2.1-0.2,3.2c0.1,0.9,0.8,1.3,1.7,1.2c0.4,0,0.7-0.1,1.1-0.2
		C12.2,29,13.9,27.6,15.5,26.1z M24.7,12.9c0.6-1.5,1.1-3.1,1-4.7c-0.1-1.5-0.9-2.2-2.4-1.8c-2.4,0.6-4.2,2.2-6.1,3.9
		c0.6,0.7,1.1,1.3,1.7,1.9c0.1,0.1,0.3,0.2,0.4,0.2C21.1,12.5,22.9,12.7,24.7,12.9z M25.1,21.9c1.9-0.5,3.8-1,5.4-2.2
		c1.4-1,1.3-2.2-0.1-3.2c-1.4-1-3-1.5-4.6-2c-0.1,0-0.4,0.1-0.5,0.3c-0.6,1.1-1.2,2.2-1.8,3.3c-0.1,0.2-0.1,0.5,0,0.7
		C24,19.8,24.6,20.8,25.1,21.9z M17.4,26.2c1.2,0.9,2.4,1.8,3.6,2.6c0.7,0.4,1.4,0.8,2.2,1c1.4,0.4,2.1-0.2,2.2-1.7
		c0.1-1.7-0.4-3.2-1-4.7c-1.6,0.2-3.2,0.3-4.7,0.5c-0.1,0-0.3,0.1-0.4,0.2C18.6,24.8,18.1,25.5,17.4,26.2z M7.5,21.5
		c0.6-1.1,1.2-2.2,1.8-3.3c0.1-0.1,0.1-0.3,0.1-0.4c-0.5-1-1.1-2.1-1.7-3.1c-1.5,0.4-2.9,0.9-4.1,1.9c-1.3,1-1.3,2.1,0,3.1
		C4.6,20.6,6,21.1,7.5,21.5z M24.2,14.2c-1.4-0.2-2.6-0.3-4-0.5c0.9,1.3,1.6,2.4,2.4,3.6C23.2,16.2,23.7,15.2,24.2,14.2z M12.3,22.5
		c0-0.1,0-0.1,0.1-0.2c-0.7-1-1.4-2-2.2-3.1c-0.5,0.9-0.9,1.8-1.4,2.7C10,22.1,11.1,22.3,12.3,22.5z M8.9,14.4
		c0.4,0.8,0.8,1.6,1.2,2.4c0.7-1,1.4-1.9,2.1-2.9C11.1,14,10.1,14.2,8.9,14.4z M23.8,22.2c-0.4-0.8-0.8-1.6-1.2-2.4
		c-0.7,1-1.3,1.9-2.1,2.9C21.7,22.5,22.7,22.3,23.8,22.2z M17.6,24.1c-0.8,0-1.4,0-2.1,0c0.4,0.4,0.7,0.8,1.1,1.1
		C16.9,24.8,17.2,24.5,17.6,24.1z M16.3,11.1c-0.4,0.4-0.7,0.8-1,1.2c0.4,0,0.7,0,1,0c0.3,0,0.6,0,1,0C17,11.8,16.7,11.5,16.3,11.1z
		"/>
	<path class="st0" d="M14.5,18.2c0-1.4,1.1-2.5,2.5-2.5c1.4,0,2.5,1.1,2.5,2.5c0,1.4-1.1,2.5-2.5,2.5C15.6,20.7,14.5,19.5,14.5,18.2
		z"/>
</g>
</svg>
