<?xml version="1.0" encoding="utf-8"?>
<!-- Generator: Adobe Illustrator 24.0.1, SVG Export Plug-In . SVG Version: 6.00 Build 0)  -->
<svg version="1.1" id="Camada_1" xmlns="http://www.w3.org/2000/svg" xmlns:xlink="http://www.w3.org/1999/xlink" x="0px" y="0px"
	 viewBox="0 0 770 770" style="enable-background:new 0 0 770 770;" xml:space="preserve">
<style type="text/css">
	.st0{fill:none;stroke:#BC3C90;stroke-width:5;stroke-miterlimit:10;}
</style>
<polygon class="st0" points="318.8,196.3 113.3,401.8 318.8,607.3 318.8,733.3 47.8,462.3 108.3,401.8 47.8,341.3 318.8,70.4 "/>
<rect x="110.4" y="401.4" transform="matrix(0.7072 -0.707 0.707 0.7072 -251.6448 195.9879)" class="st0" width="0.7" height="0.7"/>
<rect x="110.4" y="401.4" transform="matrix(0.7072 -0.707 0.707 0.7072 -251.6448 195.9879)" class="st0" width="0.7" height="0.7"/>
<line class="st0" x1="318.8" y1="731.3" x2="318.8" y2="605.4"/>
<line class="st0" x1="318.8" y1="194.3" x2="318.8" y2="68.4"/>
<polygon class="st0" points="113.3,401.8 47.8,341.3 47.8,462.3 "/>
<g>
	<polygon class="st0" points="483,196.3 688.6,401.8 483,607.3 483,733.3 754,462.3 693.5,401.8 754,341.3 483,70.4 	"/>
	
		<rect x="690.7" y="401.4" transform="matrix(0.707 -0.7072 0.7072 0.707 -81.693 606.4167)" class="st0" width="0.7" height="0.7"/>
	
		<rect x="690.7" y="401.4" transform="matrix(0.707 -0.7072 0.7072 0.707 -81.693 606.4167)" class="st0" width="0.7" height="0.7"/>
	<line class="st0" x1="483" y1="605.4" x2="483" y2="731.3"/>
	<line class="st0" x1="483" y1="68.4" x2="483" y2="194.3"/>
	<polygon class="st0" points="688.6,401.8 754,341.3 754,462.3 	"/>
</g>
</svg>
